<svg xmlns="http://www.w3.org/2000/svg" viewBox="0 0 1200 630" width="1200" height="630">
  <defs>
    <linearGradient id="bg" x1="0" y1="0" x2="0" y2="1">
      <stop offset="0" stop-color="#04122f"/><stop offset="1" stop-color="#12508f"/>
    </linearGradient>
    <linearGradient id="w" x1="0" y1="0" x2="0" y2="1">
      <stop offset="0" stop-color="#0d3a72"/><stop offset="1" stop-color="#0a2a5e"/>
    </linearGradient>
  </defs>
  <rect width="1200" height="630" fill="url(#bg)"/>
  <circle cx="1000" cy="130" r="58" fill="#eafcff" opacity=".16"/>
  <g transform="translate(880 400)">
    <path d="M0 0 L0 -190 L136 0 Z" fill="#3fd0d4" opacity=".95"/>
    <path d="M-8 0 L-8 -166 L-116 0 Z" fill="#9df6d6" opacity=".85"/>
    <rect x="-4" y="-193" width="5" height="199" fill="#eafcff" opacity=".75"/>
    <path d="M-121 3 L141 3 L121 33 L-101 33 Z" fill="#04122f"/>
  </g>
  <path d="M-50 450 q160 -42 320 0 t320 0 t320 0 t320 0 v250 h-1400 Z" fill="url(#w)" opacity=".55"/>
  <path d="M-50 510 q160 -46 320 0 t320 0 t320 0 t320 0 v200 h-1400 Z" fill="#0a2a5e" opacity=".8"/>
  <path d="M-50 570 q160 -38 320 0 t320 0 t320 0 t320 0 v150 h-1400 Z" fill="#04122f"/>
  <g font-family="Hiragino Kaku Gothic ProN, Yu Gothic, Noto Sans JP, sans-serif" fill="#ffffff">
    <text x="90" y="215" font-size="34" font-weight="700" letter-spacing="8" fill="#3fd0d4">HOBIE CAT NIIGATA FLEET</text>
    <text x="90" y="315" font-size="76" font-weight="900">日本海の風を、</text>
    <text x="90" y="405" font-size="76" font-weight="900" fill="#9df6d6">自分の手で操る。</text>
    <text x="90" y="475" font-size="28" font-weight="600" opacity=".8">新潟市・西海岸／双胴ヨット「ホビーキャット」セーリングクラブ</text>
  </g>
</svg>
